# 3ds Max Wavefront OBJ Exporter v0.97b - (c)2007 guruware
# File Created: 08.02.2016 20:52:43

mtllib Bicho.mtl

#
# object Box005
#

v  10.7583 140.4504 42.7156
v  16.9021 139.4495 12.6499
v  46.8469 144.8010 9.9846
v  48.1200 143.7169 57.6203
v  9.7362 166.9460 45.9697
v  49.3244 180.3801 57.2854
v  48.0513 180.1929 9.6497
v  18.0968 168.5562 15.4113
v  26.0846 129.2673 35.4669
v  26.0846 129.2673 25.2851
v  35.6540 129.2673 25.2851
v  35.6540 129.2673 35.4669
v  26.0846 145.4915 35.4669
v  35.6540 145.4915 35.4669
v  35.6540 145.4915 25.2851
v  26.0846 145.4915 25.2851
v  10.6259 50.0827 55.6756
v  10.6259 50.0827 -3.1308
v  50.2183 50.0827 -3.1308
v  50.2183 50.0827 55.6756
v  10.6259 129.2673 55.6756
v  50.2183 129.2673 55.6756
v  50.2183 129.2673 -3.1308
v  10.6259 129.2673 -3.1308
# 24 vertices

vn 0.1283 -0.9917 0.0096
vn 0.1815 -0.9809 0.0697
vn 0.1336 -0.9909 0.0155
vn 0.0971 -0.9950 -0.0252
vn -0.3403 0.9402 -0.0161
vn -0.3226 0.9465 0.0049
vn -0.3415 0.9397 -0.0175
vn -0.3704 0.9274 -0.0525
vn -0.2985 -0.0593 0.9526
vn -0.3720 0.0207 0.9280
vn -0.3216 -0.0346 0.9462
vn -0.2324 -0.1274 0.9642
vn 0.9991 -0.0336 -0.0269
vn 0.9990 -0.0343 -0.0275
vn 0.9991 -0.0338 -0.0271
vn 0.9991 -0.0331 -0.0266
vn -0.1484 0.0460 -0.9879
vn -0.1056 0.0982 -0.9895
vn -0.1498 0.0444 -0.9877
vn -0.1878 -0.0029 -0.9822
vn -0.9719 0.0299 -0.2337
vn -0.9798 -0.0133 -0.1998
vn -0.9730 0.0247 -0.2296
vn -0.9634 0.0642 -0.2602
vn 0.0000 -1.0000 -0.0000
vn 0.0000 1.0000 -0.0000
vn 0.0000 0.0000 1.0000
vn 1.0000 0.0000 -0.0000
vn 0.0000 0.0000 -1.0000
vn -1.0000 0.0000 -0.0000
# 30 vertex normals

vt 1.0000 0.0000 0.0000
vt 1.0000 1.0000 0.0000
vt 0.0000 1.0000 0.0000
vt 0.0000 0.0000 0.0000
# 4 texture coords

g Box005
usemtl wire_214229166
s 2
f 1/1/1 2/2/2 3/3/3 4/4/4 
s 4
f 5/4/5 6/1/6 7/2/7 8/3/8 
s 8
f 1/4/9 4/1/10 6/2/11 5/3/12 
s 16
f 4/4/13 3/1/14 7/2/15 6/3/16 
s 32
f 3/4/17 2/1/18 8/2/19 7/3/20 
s 64
f 2/4/21 1/1/22 5/2/23 8/3/24 
s 2
f 9/1/25 10/2/25 11/3/25 12/4/25 
s 4
f 13/4/26 14/1/26 15/2/26 16/3/26 
s 8
f 9/4/27 12/1/27 14/2/27 13/3/27 
s 16
f 12/4/28 11/1/28 15/2/28 14/3/28 
s 32
f 11/4/29 10/1/29 16/2/29 15/3/29 
s 64
f 10/4/30 9/1/30 13/2/30 16/3/30 
s 2
f 17/1/25 18/2/25 19/3/25 20/4/25 
s 4
f 21/4/26 22/1/26 23/2/26 24/3/26 
s 8
f 17/4/27 20/1/27 22/2/27 21/3/27 
s 16
f 20/4/28 19/1/28 23/2/28 22/3/28 
s 32
f 19/4/29 18/1/29 24/2/29 23/3/29 
s 64
f 18/4/30 17/1/30 21/2/30 24/3/30 
# 18 polygons

#
# object Object001
#

v  16.5848 0.0054 20.5914
v  16.5903 0.3279 0.7660
v  35.7022 0.0019 0.7660
v  35.6967 -0.3206 20.5914
v  17.4377 50.0083 21.4050
v  36.5497 49.6823 21.4050
v  36.5552 50.0048 1.5796
v  17.4432 50.3308 1.5796
# 8 vertices

vn -0.0171 -0.9997 -0.0163
vn 0.0171 0.9997 0.0163
vn -0.0003 -0.0163 0.9999
vn 0.9999 -0.0171 -0.0000
vn 0.9999 -0.0171 0.0000
vn 0.0003 0.0163 -0.9999
vn -0.9999 0.0171 -0.0000
# 7 vertex normals

vt 1.0000 0.0000 0.0000
vt 1.0000 1.0000 0.0000
vt 0.0000 1.0000 0.0000
vt 0.0000 0.0000 0.0000
# 4 texture coords

g Object001
usemtl wire_214229166
s 2
f 25/5/31 26/6/31 27/7/31 28/8/31 
s 4
f 29/8/32 30/5/32 31/6/32 32/7/32 
s 8
f 25/8/33 28/5/33 30/6/33 29/7/33 
s 16
f 28/8/34 27/5/34 31/6/34 30/7/35 
s 32
f 27/8/36 26/5/36 32/6/36 31/7/36 
s 64
f 26/8/37 25/5/37 29/6/37 32/7/37 
# 6 polygons

#
# object Object002
#

v  16.5651 0.0000 59.7466
v  16.5651 0.0000 39.9186
v  35.6798 0.0000 39.9186
v  35.6798 0.0000 59.7466
v  16.5651 50.0168 59.7466
v  35.6798 50.0168 59.7466
v  35.6798 50.0168 39.9186
v  16.5651 50.0168 39.9186
# 8 vertices

vn -0.0000 -1.0000 -0.0000
vn 0.0000 1.0000 -0.0000
vn 0.0000 0.0000 1.0000
vn 1.0000 -0.0000 -0.0000
vn 0.0000 0.0000 -1.0000
vn -1.0000 0.0000 -0.0000
# 6 vertex normals

vt 1.0000 0.0000 0.0000
vt 1.0000 1.0000 0.0000
vt 0.0000 1.0000 0.0000
vt 0.0000 0.0000 0.0000
# 4 texture coords

g Object002
usemtl wire_214229166
s 2
f 33/9/38 34/10/38 35/11/38 36/12/38 
s 4
f 37/12/39 38/9/39 39/10/39 40/11/39 
s 8
f 33/12/40 36/9/40 38/10/40 37/11/40 
s 16
f 36/12/41 35/9/41 39/10/41 38/11/41 
s 32
f 35/12/42 34/9/42 40/10/42 39/11/42 
s 64
f 34/12/43 33/9/43 37/10/43 40/11/43 
# 6 polygons

